<svg id="Layer_1" data-name="Layer 1" xmlns="http://www.w3.org/2000/svg" viewBox="0 0 43.96 43.96"><defs><style>.cls-1,.cls-2{fill:none;stroke:#231f20;stroke-linecap:round;stroke-linejoin:round;}.cls-1{stroke-width:0.8px;}.cls-2{stroke-width:1.32px;stroke-dasharray:0 3.2;}</style></defs><path class="cls-1" d="M10.53,27.81A9.12,9.12,0,0,0,21,23.49a17.65,17.65,0,0,0-3.15,9.28,1.65,1.65,0,0,0,.34,1.31c.36.35.54.18.79.05A2.8,2.8,0,0,0,20.27,33c1.49-2.37,2.19-4.66,3.73-7,.51-.77,1.26-1.64,2.16-1.43s1.22,1.64,1,2.67-.68,2.19-.11,3.08L31.73,24a2.14,2.14,0,0,1,1.29-1c.8-.12,1.47.68,1.58,1.48a8.84,8.84,0,0,1-.25,2.39A2.39,2.39,0,0,0,35,29a2,2,0,0,0,2.17,0,5.57,5.57,0,0,0,1.57-1.67l4.06-5.66" transform="translate(-4.68 -4.68)"/><circle class="cls-2" cx="21.98" cy="21.98" r="21.32"/></svg>